<?xml version="1.0" encoding="utf-8"?>
<!-- Generator: Adobe Illustrator 16.0.3, SVG Export Plug-In . SVG Version: 6.00 Build 0)  -->
<!DOCTYPE svg PUBLIC "-//W3C//DTD SVG 1.1//EN" "http://www.w3.org/Graphics/SVG/1.1/DTD/svg11.dtd">
<svg enable-background="new 0 0 192 192" height="192px" id="Calque_1" version="1.1"
     viewBox="0 0 192 192"
     width="192px" x="0px" xmlns="http://www.w3.org/2000/svg" y="0px" xml:space="preserve">
<path d="M130.548,109.453" fill="#000000" stroke="#000000" stroke-miterlimit="10"/>
    <path d="M127.912,80.793c19.664,18.333,19.489,36.753,19.489,36.753
	c1.449,34.81-25.97,58.268-57.898,58.268c-31.933,0-57.822-27.305-57.822-61.013c0-41.833,43.001-60.426,57.822-100.525
	l4.058-11.805c13.516,27.6,3.493,48.124,3.493,48.124c-8.67,23.463-35.428,34.073-35.428,58.554
	c0,19.719,14.917,35.822,33.599,36.423c19.179,0.645,35.12-10.109,37.622-31.031C135.155,95.297,127.912,80.793,127.912,80.793z"
          fill="#000000" stroke="#000000" stroke-miterlimit="10"/>
    <path d="M138.504,169.399c20.755-19.417,19.184-55.935,19.184-55.935
	s17.208,36.436-12.895,63.629c-27.74,25.05-59.718,9.55-59.718,9.55S115.577,190.892,138.504,169.399z" fill="#000000"
          stroke="#000000" stroke-miterlimit="10"/>
    <path d="M125.636,112.076c0,7.214-5.855,13.066-13.077,13.066
	c-7.213,0-13.074-5.853-13.074-13.066c0-7.225,5.861-13.08,13.074-13.08C119.78,98.996,125.636,104.852,125.636,112.076z"
          fill="#000000" stroke="#000000" stroke-miterlimit="10"/>
    <path d="M93.215,121.6c0,4.499-3.644,8.147-8.14,8.147
	c-4.491,0-8.133-3.648-8.133-8.147c0-4.492,3.642-8.135,8.133-8.135C89.571,113.465,93.215,117.107,93.215,121.6z"
          fill="#000000" stroke="#000000" stroke-miterlimit="10"/>
    <path d="M80.284,100.313c0,1.85-1.502,3.352-3.343,3.352
	c-1.843,0-3.339-1.502-3.339-3.352c0-1.842,1.497-3.339,3.339-3.339C78.782,96.974,80.284,98.471,80.284,100.313z"
          fill="#000000" stroke="#000000" stroke-miterlimit="10"/>
    <path d="M130.548,109.453" fill="#000000" stroke="#000000" stroke-miterlimit="10"/>
    <path d="M127.912,80.786c19.664,18.341,19.489,36.761,19.489,36.761
	c1.449,34.81-25.97,58.268-57.898,58.268c-31.933,0-57.822-27.32-57.822-61.013c0-41.833,43.001-60.435,57.822-100.525l4.058-11.805
	c13.516,27.6,3.493,48.124,3.493,48.124c-8.67,23.455-35.428,34.073-35.428,58.554c0,19.719,14.917,35.822,33.599,36.423
	c19.179,0.645,35.12-10.109,37.622-31.031C135.155,95.297,127.912,80.786,127.912,80.786z" fill="#000000"
          stroke="#000000" stroke-miterlimit="10"/>
    <path d="M138.504,169.399c20.755-19.417,19.184-55.935,19.184-55.935
	s17.208,36.436-12.895,63.629c-27.74,25.05-59.718,9.55-59.718,9.55S115.577,190.878,138.504,169.399z" fill="#000000"
          stroke="#000000" stroke-miterlimit="10"/>
    <path d="M125.636,112.076c0,7.214-5.855,13.066-13.077,13.066
	c-7.213,0-13.074-5.853-13.074-13.066c0-7.234,5.861-13.08,13.074-13.08C119.78,98.996,125.636,104.842,125.636,112.076z"
          fill="#000000" stroke="#000000" stroke-miterlimit="10"/>
    <path d="M93.215,121.6c0,4.499-3.644,8.147-8.14,8.147
	c-4.491,0-8.133-3.648-8.133-8.147c0-4.492,3.642-8.135,8.133-8.135C89.571,113.465,93.215,117.107,93.215,121.6z"
          fill="#000000" stroke="#000000" stroke-miterlimit="10"/>
    <path d="M80.284,100.313c0,1.85-1.502,3.352-3.343,3.352
	c-1.843,0-3.339-1.502-3.339-3.352c0-1.842,1.497-3.339,3.339-3.339C78.782,96.974,80.284,98.471,80.284,100.313z"
          fill="#000000" stroke="#000000" stroke-miterlimit="10"/>
</svg>
