<?xml version="1.0" encoding="utf-8"?>
<!-- Generator: Adobe Illustrator 16.0.3, SVG Export Plug-In . SVG Version: 6.00 Build 0)  -->
<!DOCTYPE svg PUBLIC "-//W3C//DTD SVG 1.1//EN" "http://www.w3.org/Graphics/SVG/1.1/DTD/svg11.dtd">
<svg version="1.1" id="Calque_1" xmlns="http://www.w3.org/2000/svg" xmlns:xlink="http://www.w3.org/1999/xlink" x="0px" y="0px"
	 width="150px" height="150px" viewBox="0 0 150 150" enable-background="new 0 0 150 150" xml:space="preserve">
<path fill="#6358EB" stroke="#6358EB" stroke-miterlimit="10" d="M104.146,85.199"/>
<path fill="#6358EB" stroke="#6358EB" stroke-miterlimit="10" d="M102.084,62.771c15.39,14.347,15.252,28.76,15.252,28.76
	c1.135,27.24-20.323,45.597-45.307,45.597c-24.987,0-45.247-21.367-45.247-47.743c0-32.736,33.65-47.286,45.247-78.664l3.177-9.237
	c10.574,21.597,2.732,37.657,2.732,37.657c-6.785,18.361-27.724,26.663-27.724,45.821c0,15.431,11.673,28.031,26.291,28.5
	c15.009,0.504,27.481-7.911,29.439-24.281C107.752,74.122,102.084,62.771,102.084,62.771z"/>
<path fill="#6358EB" stroke="#6358EB" stroke-miterlimit="10" d="M110.373,132.108c16.241-15.195,15.014-43.77,15.014-43.77
	s13.465,28.512-10.093,49.79c-21.708,19.603-46.73,7.472-46.73,7.472S92.433,148.926,110.373,132.108z"/>
<path fill="#6358EB" stroke="#6358EB" stroke-miterlimit="10" d="M100.303,87.251c0,5.646-4.582,10.224-10.231,10.224
	c-5.645,0-10.232-4.578-10.232-10.224c0-5.654,4.588-10.236,10.232-10.236C95.721,77.015,100.303,81.597,100.303,87.251z"/>
<path fill="#6358EB" stroke="#6358EB" stroke-miterlimit="10" d="M74.931,94.703c0,3.521-2.85,6.374-6.367,6.374
	c-3.515,0-6.364-2.854-6.364-6.374c0-3.516,2.85-6.364,6.364-6.364C72.081,88.339,74.931,91.188,74.931,94.703z"/>
<path fill="#6358EB" stroke="#6358EB" stroke-miterlimit="10" d="M64.815,78.047c0,1.446-1.176,2.62-2.616,2.62
	c-1.441,0-2.613-1.174-2.613-2.62c0-1.442,1.172-2.614,2.613-2.614C63.64,75.433,64.815,76.605,64.815,78.047z"/>
<path fill="#6358EB" stroke="#6358EB" stroke-miterlimit="10" d="M104.146,85.199"/>
<path fill="#6358EB" stroke="#6358EB" stroke-miterlimit="10" d="M102.084,62.766c15.39,14.353,15.252,28.766,15.252,28.766
	c1.135,27.24-20.323,45.597-45.307,45.597c-24.987,0-45.247-21.379-45.247-47.743c0-32.736,33.65-47.292,45.247-78.664l3.177-9.237
	c10.574,21.597,2.732,37.657,2.732,37.657c-6.785,18.354-27.724,26.663-27.724,45.821c0,15.431,11.673,28.031,26.291,28.5
	c15.009,0.504,27.481-7.911,29.439-24.281C107.752,74.122,102.084,62.766,102.084,62.766z"/>
<path fill="#6358EB" stroke="#6358EB" stroke-miterlimit="10" d="M110.373,132.108c16.241-15.195,15.014-43.77,15.014-43.77
	s13.465,28.512-10.093,49.79c-21.708,19.603-46.73,7.472-46.73,7.472S92.433,148.915,110.373,132.108z"/>
<path fill="#6358EB" stroke="#6358EB" stroke-miterlimit="10" d="M100.303,90.904c0,5.646-4.582,10.224-10.231,10.224
	c-5.645,0-10.232-4.578-10.232-10.224c0-5.661,4.588-10.237,10.232-10.237C95.721,80.667,100.303,85.243,100.303,90.904z"/>
<path fill="#6358EB" stroke="#6358EB" stroke-miterlimit="10" d="M74.931,94.703c0,3.521-2.85,6.374-6.367,6.374
	c-3.515,0-6.364-2.854-6.364-6.374c0-3.516,2.85-6.364,6.364-6.364C72.081,88.339,74.931,91.188,74.931,94.703z"/>
<path fill="#6358EB" stroke="#6358EB" stroke-miterlimit="10" d="M64.815,78.047c0,1.446-1.176,2.62-2.616,2.62
	c-1.441,0-2.613-1.174-2.613-2.62c0-1.442,1.172-2.614,2.613-2.614C63.64,75.433,64.815,76.605,64.815,78.047z"/>
</svg>
