<?xml version="1.0" encoding="utf-8"?>
<!-- Generator: Adobe Illustrator 16.0.3, SVG Export Plug-In . SVG Version: 6.00 Build 0)  -->
<!DOCTYPE svg PUBLIC "-//W3C//DTD SVG 1.1//EN" "http://www.w3.org/Graphics/SVG/1.1/DTD/svg11.dtd">
<svg enable-background="new 0 0 38.545 55.986" height="55.986px" id="Calque_1" version="1.1"
     viewBox="0 0 38.545 55.986"
     width="38.545px" x="0px" xmlns="http://www.w3.org/2000/svg" y="0px"
     xml:space="preserve">
<circle cx="23.696" cy="32.736" fill="none" r="3.75" stroke="#6358EB" stroke-miterlimit="10"/>
    <circle cx="15.814" cy="35.471" fill="none" r="2.333" stroke="#6358EB" stroke-miterlimit="10"/>
    <circle cx="13.481" cy="29.365" fill="none" r="0.958" stroke="#6358EB" stroke-miterlimit="10"/>
    <path d="M28.854,31.986" fill="none" stroke="#6358EB" stroke-miterlimit="10"/>
    <path d="M28.101,23.765c5.641,5.259,5.59,10.542,5.59,10.542
	c0.416,9.984-7.447,16.714-16.606,16.714c-9.158,0-16.583-7.835-16.583-17.5c0-12,12.333-17.333,16.583-28.833l1.167-3.386
	c3.875,7.917,1,13.802,1,13.802C16.764,21.833,9.09,24.877,9.09,31.899c0,5.656,4.279,10.273,9.636,10.449
	c5.5,0.183,10.072-2.902,10.791-8.902C30.179,27.925,28.101,23.765,28.101,23.765z" fill="none" stroke="#6358EB"
          stroke-miterlimit="10"/>
    <path d="M31.14,49.182c5.95-5.573,5.502-16.045,5.502-16.045
	s4.936,10.45-3.699,18.25c-7.957,7.188-17.127,2.74-17.127,2.74S24.562,55.342,31.14,49.182z" fill="none"
          stroke="#6358EB" stroke-miterlimit="10"/>
</svg>
