<?xml version="1.0" encoding="utf-8"?>
<!-- Generator: Adobe Illustrator 16.0.3, SVG Export Plug-In . SVG Version: 6.00 Build 0)  -->
<!DOCTYPE svg PUBLIC "-//W3C//DTD SVG 1.1//EN" "http://www.w3.org/Graphics/SVG/1.1/DTD/svg11.dtd">
<svg version="1.1" id="Calque_1" xmlns="http://www.w3.org/2000/svg" xmlns:xlink="http://www.w3.org/1999/xlink" x="0px" y="0px"
	 width="38.545px" height="55.988px" viewBox="66.501 51.5 38.545 55.988" enable-background="new 66.501 51.5 38.545 55.988"
	 xml:space="preserve">
<path fill="none" stroke="#4A486B" stroke-miterlimit="10" d="M95.354,83.485"/>
<path fill="none" stroke="#4A486B" stroke-miterlimit="10" d="M94.601,75.265c5.641,5.259,5.59,10.542,5.59,10.542
	c0.416,9.984-7.447,16.714-16.606,16.714c-9.158,0-16.583-7.835-16.583-17.5c0-12,12.333-17.333,16.583-28.833l1.167-3.386
	c3.875,7.917,1,13.802,1,13.802c-2.487,6.729-10.161,9.773-10.161,16.795c0,5.656,4.279,10.273,9.637,10.449
	c5.499,0.183,10.071-2.902,10.79-8.902C96.679,79.425,94.601,75.265,94.601,75.265z"/>
<path fill="none" stroke="#4A486B" stroke-miterlimit="10" d="M97.64,100.682c5.95-5.573,5.502-16.045,5.502-16.045
	s4.936,10.45-3.699,18.25c-7.957,7.188-17.128,2.74-17.128,2.74S91.062,106.842,97.64,100.682z"/>
<circle fill="none" stroke="#4A486B" stroke-miterlimit="10" cx="90.196" cy="84.235" r="3.75"/>
<circle fill="none" stroke="#4A486B" stroke-miterlimit="10" cx="82.314" cy="86.971" r="2.333"/>
<circle fill="none" stroke="#4A486B" stroke-miterlimit="10" cx="79.98" cy="80.865" r="0.958"/>
</svg>
