<?xml version="1.0" encoding="utf-8"?>
<!-- Generator: Adobe Illustrator 16.0.3, SVG Export Plug-In . SVG Version: 6.00 Build 0)  -->
<!DOCTYPE svg PUBLIC "-//W3C//DTD SVG 1.1//EN" "http://www.w3.org/Graphics/SVG/1.1/DTD/svg11.dtd">
<svg enable-background="new 0 0 38.545 55.987" height="55.987px" id="Calque_1" version="1.1"
     viewBox="0 0 38.545 55.987"
     width="38.545px" x="0px" xmlns="http://www.w3.org/2000/svg" y="0px"
     xml:space="preserve">
<circle cx="23.697" cy="32.736" fill="#FFFFFF" r="3.75" stroke="#FFFFFF" stroke-miterlimit="10"/>
    <circle cx="15.814" cy="35.471" fill="#FFFFFF" r="2.333" stroke="#FFFFFF" stroke-miterlimit="10"/>
    <circle cx="13.481" cy="29.365" fill="#FFFFFF" r="0.958" stroke="#FFFFFF" stroke-miterlimit="10"/>
    <path d="M28.854,31.986" fill="#FFFFFF" stroke="#FFFFFF" stroke-miterlimit="10"/>
    <path d="M28.1,23.765c5.641,5.259,5.59,10.542,5.59,10.542
	c0.416,9.985-7.448,16.714-16.607,16.714c-9.158,0-16.583-7.835-16.583-17.5c0-12,12.333-17.333,16.583-28.833l1.167-3.386
	c3.875,7.917,1,13.802,1,13.802c-2.487,6.729-10.161,9.773-10.161,16.795c0,5.656,4.279,10.273,9.636,10.45
	c5.5,0.181,10.073-2.902,10.792-8.902C30.177,27.925,28.1,23.765,28.1,23.765z" fill="#FFFFFF" stroke="#FFFFFF"
          stroke-miterlimit="10"/>
    <path d="M31.139,49.182c5.95-5.573,5.502-16.044,5.502-16.044
	s4.936,10.45-3.7,18.25c-7.957,7.187-17.127,2.74-17.127,2.74S24.561,55.342,31.139,49.182z" fill="#FFFFFF"
          stroke="#FFFFFF" stroke-miterlimit="10"/>
</svg>
