<?xml version="1.0" encoding="utf-8"?>
<!-- Generator: Adobe Illustrator 16.0.3, SVG Export Plug-In . SVG Version: 6.00 Build 0)  -->
<!DOCTYPE svg PUBLIC "-//W3C//DTD SVG 1.1//EN" "http://www.w3.org/Graphics/SVG/1.1/DTD/svg11.dtd">
<svg version="1.1" id="Calque_1" xmlns="http://www.w3.org/2000/svg" xmlns:xlink="http://www.w3.org/1999/xlink" x="0px" y="0px"
	 width="38.545px" height="55.986px" viewBox="0 0 38.545 55.986" enable-background="new 0 0 38.545 55.986" xml:space="preserve">
<path fill="#FFFFFF" stroke="#6358EB" stroke-miterlimit="10" d="M28.854,31.986"/>
<path fill="#FFFFFF" stroke="#6358EB" stroke-miterlimit="10" d="M28.101,23.765c5.641,5.259,5.59,10.542,5.59,10.542
	c0.416,9.984-7.447,16.714-16.606,16.714c-9.158,0-16.583-7.835-16.583-17.5c0-12,12.333-17.333,16.583-28.833l1.167-3.386
	c3.875,7.917,1,13.802,1,13.802C16.764,21.833,9.09,24.877,9.09,31.899c0,5.656,4.279,10.273,9.636,10.449
	c5.5,0.183,10.072-2.902,10.791-8.902C30.179,27.925,28.101,23.765,28.101,23.765z"/>
<path fill="#FFFFFF" stroke="#6358EB" stroke-miterlimit="10" d="M31.14,49.182c5.95-5.573,5.502-16.045,5.502-16.045
	s4.936,10.45-3.699,18.25c-7.957,7.188-17.127,2.74-17.127,2.74S24.562,55.342,31.14,49.182z"/>
<circle fill="#FFFFFF" stroke="#6358EB" stroke-miterlimit="10" cx="23.696" cy="32.736" r="3.75"/>
<circle fill="#FFFFFF" stroke="#6358EB" stroke-miterlimit="10" cx="15.814" cy="35.471" r="2.333"/>
<circle fill="#FFFFFF" stroke="#6358EB" stroke-miterlimit="10" cx="13.481" cy="29.365" r="0.958"/>
</svg>
