<?xml version="1.0" standalone="no"?>
<!DOCTYPE svg PUBLIC "-//W3C//DTD SVG 20010904//EN"
 "http://www.w3.org/TR/2001/REC-SVG-20010904/DTD/svg10.dtd">
<svg version="1.0" xmlns="http://www.w3.org/2000/svg"
 width="500.000000pt" height="500.000000pt" viewBox="0 0 500.000000 500.000000"
 preserveAspectRatio="xMidYMid meet">
<metadata>
Created by potrace 1.11, written by Peter Selinger 2001-2013
</metadata>
<g transform="translate(0.000000,500.000000) scale(0.100000,-0.100000)"
fill="#000000" stroke="none">
<path d="M1710 3851 c0 -19 66 -59 230 -139 91 -44 239 -126 330 -182 91 -57
203 -122 250 -147 l85 -44 -150 6 c-82 3 -267 12 -410 20 -450 26 -579 29
-603 16 -12 -6 -26 -28 -32 -49 -10 -37 -50 -607 -50 -713 0 -41 5 -63 19 -80
l19 -23 663 -28 c365 -15 733 -30 816 -34 l153 -6 94 -192 c90 -183 206 -451
206 -475 0 -32 -63 -6 -265 111 -179 104 -265 170 -405 311 -87 87 -134 127
-150 127 -34 0 -75 -52 -94 -118 -31 -111 -14 -245 43 -347 36 -64 246 -238
457 -379 81 -55 143 -101 136 -104 -7 -2 -72 8 -145 22 -72 14 -161 30 -195
36 -35 6 -125 29 -199 50 -127 37 -137 38 -149 22 -7 -9 -14 -28 -14 -40 0
-23 -6 -21 -127 43 -282 148 -417 261 -666 552 -121 142 -155 157 -132 61 8
-29 18 -85 24 -123 15 -104 76 -310 116 -392 23 -47 52 -87 85 -116 146 -132
399 -229 649 -250 l135 -11 36 -36 c85 -85 291 -165 533 -207 86 -14 121 -24
249 -72 32 -11 66 -21 77 -21 25 0 90 -74 130 -149 66 -125 87 -139 301 -201
269 -79 305 -78 486 11 131 65 215 141 258 233 55 119 57 342 4 458 -14 29
-59 91 -99 138 -101 115 -113 134 -137 215 -12 39 -33 110 -48 158 -15 48 -36
102 -48 120 -24 36 -96 76 -138 77 -19 0 -51 21 -110 75 -74 67 -90 88 -143
189 -33 63 -58 116 -55 119 3 3 122 -6 265 -19 444 -40 658 -55 709 -52 83 5
81 -3 110 426 15 219 21 383 16 396 -15 41 -38 49 -178 63 -214 20 -668 61
-765 69 -97 8 -118 18 -55 28 22 4 91 21 152 39 100 29 122 31 231 30 66 -2
136 -4 155 -5 29 -3 35 0 38 19 5 35 -64 79 -147 93 -86 14 -178 3 -316 -40
-111 -35 -286 -70 -349 -70 -41 0 -98 27 -124 59 -25 30 -4 -49 22 -83 l24
-32 -23 -26 c-18 -21 -25 -45 -30 -101 l-7 -75 -55 25 c-48 22 -65 25 -132 20
-42 -2 -84 -8 -93 -12 -16 -6 -17 1 -11 77 5 74 3 86 -15 108 -18 22 -29 25
-101 28 -45 2 -81 7 -81 11 0 3 19 14 41 25 39 18 169 130 169 146 0 4 -28 -2
-62 -15 -35 -12 -119 -30 -187 -40 -185 -28 -263 -9 -506 123 -233 127 -412
211 -544 256 -134 46 -171 54 -171 37z m449 -631 c708 -38 851 -47 859 -54 14
-15 2 -418 -14 -474 -8 -25 -14 -58 -14 -74 0 -20 -5 -28 -17 -28 -150 1
-1459 62 -1465 68 -8 8 12 393 28 540 5 48 7 52 32 52 14 0 280 -14 591 -30z
m1991 -156 c291 -26 531 -51 539 -57 9 -8 11 -25 7 -57 -3 -25 -13 -153 -21
-285 -9 -132 -20 -244 -25 -249 -8 -8 -966 70 -982 81 -5 2 -8 9 -8 15 0 6
-22 67 -50 134 -27 68 -48 129 -45 136 2 7 12 80 20 163 16 148 20 165 33 165
4 0 243 -21 532 -46z m-2472 -1288 c138 -156 293 -269 554 -407 84 -44 144
-78 133 -75 -379 95 -391 99 -509 157 -34 16 -90 51 -126 78 -53 39 -73 61
-102 117 -32 62 -128 320 -128 346 0 5 26 -26 58 -69 32 -43 86 -109 120 -147z"/>
<path d="M3206 3606 c8 -86 -7 -160 -42 -211 -31 -46 -16 -44 34 5 80 77 100
154 62 238 -13 29 -25 42 -39 42 -20 0 -20 -4 -15 -74z"/>
<path d="M3367 3502 c-38 -42 -31 -114 18 -198 32 -55 41 -52 20 6 -19 54 -19
130 -1 175 14 32 14 35 -3 35 -10 0 -25 -8 -34 -18z"/>
</g>
</svg>
